<svg xmlns="http://www.w3.org/2000/svg" xmlns:xlink="http://www.w3.org/1999/xlink" version="1.1" xml:space="preserve" class="u-svg-content" viewBox="0 0 473.87 473.87" x="0px" y="0px" id="svg-8216" style="enable-background:new 0 0 473.87 473.87;fill:white"><g><g><path d="M283.455,257.008c-3.788-18.657-20.202-32.059-39.24-32.04c-13.255,0-24-10.745-24-24s10.745-24,24-24    c13.255,0,24,10.745,24,24h16c-0.024-19.001-13.389-35.373-32-39.2v-8.8h-16v8.8c-21.65,4.396-35.636,25.51-31.24,47.16    c3.789,18.657,20.202,32.059,39.24,32.04c13.255,0,24,10.745,24,24c0,13.255-10.745,24-24,24c-13.255,0-24-10.745-24-24h-16    c0.024,19.001,13.389,35.373,32,39.2v8.8h16v-8.8C273.864,299.772,287.851,278.658,283.455,257.008z"></path>
</g>
</g><g><g><path d="M415.694,193.008l-3.536-31.808l-15.896,1.768l3.112,28l-19.912,19.904l11.312,11.296l22.624-22.624    C415.116,197.827,415.961,195.422,415.694,193.008z"></path>
</g>
</g><g><g><rect x="205.579" y="355.97" transform="matrix(0.7071 -0.7071 0.7071 0.7071 -187.7568 274.6549)" width="64.16" height="16"></rect>
</g>
</g><g><g><rect x="319.036" y="242.557" transform="matrix(0.7071 -0.7071 0.7071 0.7071 -74.3314 321.6625)" width="64.16" height="16"></rect>
</g>
</g><g><g><rect x="262.324" y="299.252" transform="matrix(0.7071 -0.7071 0.7071 0.7071 -131.031 298.1671)" width="64.16" height="16"></rect>
</g>
</g><g><g><path d="M197.99,392.328l-16.976,16.976l-16.968-16.976l-11.312,11.312l22.632,22.632c3.124,3.123,8.188,3.123,11.312,0    l22.624-22.632L197.99,392.328z"></path>
</g>
</g><g><g><rect x="110.784" y="321.047" transform="matrix(0.7071 -0.7071 0.7071 0.7071 -218.6176 188.9483)" width="16" height="74.672"></rect>
</g>
</g><g><g><path d="M84.854,279.2l-11.312-11.32L50.91,290.504c-3.123,3.124-3.123,8.188,0,11.312l22.632,22.632l11.312-11.312    l-16.976-16.968L84.854,279.2z"></path>
</g>
</g><g><g><rect x="194.568" y="118.087" transform="matrix(0.7071 -0.7071 0.7071 0.7071 -22.7729 197.1944)" width="64.16" height="16"></rect>
</g>
</g><g><g><rect x="81.144" y="231.509" transform="matrix(0.7071 -0.7071 0.7071 0.7071 -136.1959 150.2123)" width="64.16" height="16"></rect>
</g>
</g><g><g><rect x="137.856" y="174.802" transform="matrix(0.7071 -0.7071 0.7071 0.7071 -79.4873 173.7045)" width="64.16" height="16"></rect>
</g>
</g><g><g><path d="M284.19,61.488c-2.415-0.276-4.824,0.57-6.536,2.296l-22.64,22.624l11.312,11.312l19.904-19.912l28,3.112l1.768-15.896    L284.19,61.488z"></path>
</g>
</g><g><g><path d="M470.558,11.312L459.246,0c-11.728,11.728-10.2,25.12-8.984,35.872c1.2,10.528,1.6,16.8-4.392,22.752    c-3.229,3.348-7.71,5.195-12.36,5.096l-1.296-11.68c-0.412-3.722-3.35-6.66-7.072-7.072L272.406,28    c-2.414-0.267-4.819,0.578-6.536,2.296L5.654,290.504c-3.123,3.124-3.123,8.188,0,11.312l169.712,169.712    c3.124,3.123,8.188,3.123,11.312,0l260.208-260.216c1.718-1.717,2.563-4.122,2.296-6.536l-13.904-125.16    c8.275-0.288,16.12-3.755,21.904-9.68c11.728-11.728,10.2-25.12,8.984-35.872C464.966,23.536,464.574,17.296,470.558,11.312z     M181.014,454.568l-158.4-158.4l251.84-251.84l142.56,15.84l0.256,2.28c-8.575-1.187-17.296,0.658-24.656,5.216    c-9.785-3.902-20.839-2.953-29.816,2.56l-28.456-3.16l-1.768,15.896l17.984,2c-6.625,16.385,1.288,35.037,17.672,41.662    c7.692,3.11,16.291,3.111,23.984,0.002l2,17.984l15.896-1.768l-3.152-28.344c7.167-10.879,6.98-25.027-0.472-35.712    c4.157-0.73,8.407-0.766,12.576-0.104l13.792,124.04L181.014,454.568z M391.919,107.887c-0.129,0.133-0.26,0.264-0.393,0.393    c-6.329,6.047-16.295,6.047-22.624,0c-6.246-6.248-6.246-16.376,0-22.624c6.139-6.356,16.268-6.532,22.624-0.393    C397.882,91.402,398.058,101.531,391.919,107.887z"></path>
</g>
</g></svg>